<svg xmlns="http://www.w3.org/2000/svg" viewBox="0 0 1200 712" font-family="Helvetica, Arial, sans-serif">
  <defs>
    <marker id="d1" viewBox="0 0 10 10" refX="8" refY="5" markerWidth="7" markerHeight="7" orient="auto-start-reverse">
      <path d="M0 0 L10 5 L0 10 z" fill="#475569"/>
    </marker>
  </defs>
  <rect x="0" y="0" width="1200" height="700" fill="#ffffff"/>
  <rect x="0" y="0" width="8" height="700" fill="#b91c1c"/>
  <text x="56" y="52" font-size="29" font-weight="bold" fill="#0f172a">The three-pillar GeroNetwork &amp; the primacy of identity loss</text>
  <text x="58" y="83" font-size="16.5" fill="#475569">Inferred regulatory hierarchy flowing from upstream Master GeroRegulators to downstream consensus GeroTargets.</text>
  
  <!-- ===== Pillar I ===== -->
  <rect x="56" y="140" width="340" height="362" rx="14" fill="#f0fdf4" stroke="#16a34a" stroke-width="1.8"/>
  <rect x="56" y="140" width="340" height="42" rx="14" fill="#16a34a"/>
  <rect x="56" y="166" width="340" height="16" fill="#16a34a"/>
  <text x="226" y="168" font-size="16" font-weight="bold" fill="#ffffff" text-anchor="middle">Pillar I &#183; Identity / Replication</text>
  <text x="76" y="206" font-size="13" font-weight="bold" fill="#166534">Master regulators</text>
  <rect x="76" y="214" width="300" height="52" rx="8" fill="#ffffff" stroke="#bbf7d0"/>
  <text x="86" y="236" font-size="13" font-style="italic" fill="#0f172a">Ctcf, Tal1, Spi1, Tfap2c &#160;(Microglia)</text>
  <text x="86" y="256" font-size="13" font-style="italic" fill="#0f172a">Mycn, E2f1/2/4, Tp53 &#160;(HSC)</text>
  <path d="M226 270 L226 296" stroke="#475569" stroke-width="1.8" marker-end="url(#d1)"/>
  <text x="76" y="316" font-size="13" font-weight="bold" fill="#166534">Consensus targets</text>
  <rect x="76" y="324" width="300" height="52" rx="8" fill="#ffffff" stroke="#bbf7d0"/>
  <text x="86" y="346" font-size="13" font-style="italic" fill="#0f172a">Slc29a3, C3ar1, Rab31 &#160;(Microglia)</text>
  <text x="86" y="366" font-size="13" font-style="italic" fill="#0f172a">Mcm2/3/5/6, Mki67, Rrm1 &#160;(HSC)</text>
  <rect x="76" y="396" width="300" height="34" rx="8" fill="#dcfce7" stroke="#16a34a"/>
  <text x="226" y="418" font-size="13" font-weight="bold" fill="#166534" text-anchor="middle">Deep upstream driver (replication / identity)</text>
  <text x="226" y="456" font-size="12" fill="#15803d" text-anchor="middle">Replication/identity core (MCM&#8230;) is the most</text>
  <text x="226" y="473" font-size="12" fill="#15803d" text-anchor="middle">state-independent, reversible layer</text>
  <!-- ===== Pillar II ===== -->
  <rect x="430" y="140" width="340" height="362" rx="14" fill="#f8fafc" stroke="#64748b" stroke-width="1.8" stroke-dasharray="6 4"/>
  <rect x="430" y="140" width="340" height="42" rx="14" fill="#64748b"/>
  <rect x="430" y="166" width="340" height="16" fill="#64748b"/>
  <text x="600" y="168" font-size="16" font-weight="bold" fill="#ffffff" text-anchor="middle">Pillar II &#183; Dimorphic Stress Core</text>
  <text x="450" y="206" font-size="13" font-weight="bold" fill="#334155">Master regulators</text>
  <rect x="450" y="214" width="300" height="52" rx="8" fill="#ffffff" stroke="#cbd5e1"/>
  <text x="460" y="244" font-size="13" font-style="italic" fill="#0f172a">Esr1, Ar &#160;(sex-hormone receptors)</text>
  <path d="M600 270 L600 296" stroke="#475569" stroke-width="1.8" marker-end="url(#d1)"/>
  <text x="450" y="316" font-size="13" font-weight="bold" fill="#334155">Convergent hub</text>
  <rect x="450" y="324" width="300" height="52" rx="8" fill="#ffffff" stroke="#cbd5e1"/>
  <text x="460" y="348" font-size="13" font-style="italic" fill="#0f172a">AP-1 (Jun, Junb, Fos)</text>
  <text x="460" y="368" font-size="12" fill="#475569">&#8595; Lifr (microglia) &#160;&#183;&#160; &#8593; Cd9 / Cd63 (HSC)</text>
  <rect x="450" y="396" width="300" height="34" rx="8" fill="#e2e8f0" stroke="#64748b"/>
  <text x="600" y="418" font-size="12.5" font-weight="bold" fill="#334155" text-anchor="middle">Conserved &#183; regulatory sign inverts by tissue</text>
  <text x="600" y="456" font-size="12" fill="#475569" text-anchor="middle">Bridges cell-autonomous &amp; systemic aging;</text>
  <text x="600" y="473" font-size="12" fill="#475569" text-anchor="middle">explains cross-sex decoder limits (HSCs)</text>
  <!-- ===== Pillar III ===== -->
  <rect x="804" y="140" width="340" height="362" rx="14" fill="#fff7ed" stroke="#ea580c" stroke-width="1.8"/>
  <rect x="804" y="140" width="340" height="42" rx="14" fill="#ea580c"/>
  <rect x="804" y="166" width="340" height="16" fill="#ea580c"/>
  <text x="974" y="168" font-size="16" font-weight="bold" fill="#ffffff" text-anchor="middle">Pillar III &#183; Inflammatory Cascade</text>
  <text x="824" y="206" font-size="13" font-weight="bold" fill="#9a3412">Master regulators</text>
  <rect x="824" y="214" width="300" height="52" rx="8" fill="#ffffff" stroke="#fed7aa"/>
  <text x="834" y="236" font-size="13" font-style="italic" fill="#0f172a">Nfkb1, Rela, Irf1, Creb1 &#160;(Microglia)</text>
  <text x="834" y="256" font-size="13" font-style="italic" fill="#0f172a">Nfkb1, Cebpa, Foxo3 &#160;(HSC)</text>
  <path d="M974 270 L974 296" stroke="#475569" stroke-width="1.8" marker-end="url(#d1)"/>
  <text x="824" y="316" font-size="13" font-weight="bold" fill="#9a3412">Consensus targets</text>
  <rect x="824" y="324" width="300" height="52" rx="8" fill="#ffffff" stroke="#fed7aa"/>
  <text x="834" y="346" font-size="13" font-style="italic" fill="#0f172a">Cd74, H2-D1 &#160;(Microglia)</text>
  <text x="834" y="366" font-size="13" font-style="italic" fill="#0f172a">Cd74, Nfkbia, Ier3 &#160;(HSC)</text>
  <rect x="824" y="396" width="300" height="34" rx="8" fill="#ffedd5" stroke="#ea580c"/>
  <text x="974" y="418" font-size="13" font-weight="bold" fill="#9a3412" text-anchor="middle">Downstream effector (inflammaging)</text>
  <text x="974" y="456" font-size="12" fill="#c2410c" text-anchor="middle">Downstream consequence of identity loss</text>
  <text x="974" y="473" font-size="12" fill="#c2410c" text-anchor="middle">(inflammaging) via Egr1&#8594;Rela feed-forward</text>
  <!-- takeaway -->
  <rect x="56" y="530" width="1088" height="136" rx="14" fill="#fff1f2" stroke="#b91c1c" stroke-width="1.8"/>
  <text x="80" y="566" font-size="19" font-weight="bold" fill="#b91c1c">Primacy of identity loss</text>
  <text x="80" y="588" font-size="14.5" fill="#0f172a">Our model resolves aging into ordered, distinct layers: Pillar I (directional identity erosion) as the upstream driver and</text>
  <text x="80" y="609" font-size="14.5" fill="#0f172a">Pillar III (inflammaging) as a downstream program &#8212; nominating identity restoration as the higher-leverage intervention point.</text>
  <text x="80" y="630" font-size="12.5" fill="#334155">Forward&#8211;reverse traversal: the replication/identity core (Mcm2/3/5/6, Pold1, Flt3) and MHC-I (H2-D1/K1) are bidirectionally reversible;</text>
  <text x="80" y="648" font-size="12.5" fill="#334155">MHC-II (Cd74, H2-Ab1) and the HSC NF-&#954;B / immediate-early program (Egr1, Ier3, Nfkbia, Rela; Kit, Mki67, Mpo) are forward-only.</text>
</svg>